<svg enable-background="new 0 0 64 64" height="64" viewBox="0 0 64 64" width="64" xmlns="http://www.w3.org/2000/svg"><path d="m31.24 12.5h4.76v3h-4v-1c0-.77-.29-1.46-.77-1.99z" fill="#656d78"/><path d="m6 14.5v1h-4v-3h4.76l.01.01c-.48.53-.77 1.22-.77 1.99z" fill="#656d78"/><path d="m30 41.5h4.5c.83 0 1.5.67 1.5 1.5s-.67 1.5-1.5 1.5h-1.5c-1.66 0-3-1.34-3-3z" fill="#e6e9ed"/><path d="m1 34.49h7v3.01h-7z" fill="#656d78"/><path d="m27 49.5h7v3h-7z" fill="#656d78"/><path d="m39 42.5h3v4h-3z" fill="#e6e9ed"/><path d="m36 43c0-.83-.67-1.5-1.5-1.5h-4.5c0 1.66 1.34 3 3 3h1.5c.83 0 1.5-.67 1.5-1.5zm15 3.5v-4h-3-3-3-3v4h3 3 3zm9-5h-4.5c-.83 0-1.5.67-1.5 1.5s.67 1.5 1.5 1.5h1.5c1.66 0 3-1.34 3-3zm3-3v11h-8-21-7v-11z" fill="#ed5565"/><path d="m42 42.5h3v4h-3z" fill="#e6e9ed"/><path d="m57.24 27.51h4.76v2.99h-4v-1c0-.76-.29-1.46-.76-1.99z" fill="#656d78"/><g fill="#e6e9ed"><path d="m55.5 41.5h4.5c0 1.66-1.34 3-3 3h-1.5c-.83 0-1.5-.67-1.5-1.5s.67-1.5 1.5-1.5z"/><path d="m48 42.5h3v4h-3z"/><path d="m45 42.5h3v4h-3z"/></g><path d="m55 49.5h8v3h-8z" fill="#656d78"/><path d="m63 38.5h-36l5-4h26z" fill="#da4453"/><path d="m19 27.5h3v4h-3z" fill="#e6e9ed"/><path d="m32 29.5v1h-4v-3h4.76l.01.01c-.48.53-.77 1.23-.77 1.99z" fill="#656d78"/><path d="m16 27.5h3v4h-3z" fill="#e6e9ed"/><path d="m22 27.5h3v4h-3z" fill="#e6e9ed"/><path d="m6.5 27.5c.83 0 1.5.68 1.5 1.5 0 .83-.67 1.5-1.5 1.5s-1.5-.67-1.5-1.5c0-.82.67-1.5 1.5-1.5z" fill="#e6e9ed"/><path d="m58 30.5v4h-26v-.01-3.99-1c0-.76.29-1.46.77-1.99.53-.62 1.34-1.01 2.23-1.01h2 18c.89 0 1.7.39 2.24 1.01.47.53.76 1.23.76 1.99z" fill="#5d9cec"/><path d="m25 31.5v-4h-3-3-3-3v4h3 3 3zm3-1h4v3.99h-24-7v-11h36v3.01h-2c-.89 0-1.7.39-2.23 1.01l-.01-.01h-4.76zm-20-1.5c0-.82-.67-1.5-1.5-1.5s-1.5.68-1.5 1.5c0 .83.67 1.5 1.5 1.5s1.5-.67 1.5-1.5z" fill="#ffce54"/><path d="m13 27.5h3v4h-3z" fill="#e6e9ed"/><path d="m37 23.49h-36l5-3.99h26z" fill="#f6bb42"/><path d="m32 15.5v4h-26v-4-1c0-.77.29-1.46.77-1.99.53-.62 1.34-1.01 2.23-1.01h20c.89 0 1.7.39 2.23 1.01.48.53.77 1.22.77 1.99z" fill="#5d9cec"/><path d="m63 50.499h-36c-.553 0-1-.447-1-1v-10.999c0-.553.447-1 1-1h36c.553 0 1 .447 1 1v10.999c0 .553-.447 1-1 1zm-35-2h34v-8.999h-34z"/><path d="m63 53.502h-8c-.553 0-1-.447-1-1v-3.003c0-.553.447-1 1-1h8c.553 0 1 .447 1 1v3.003c0 .553-.447 1-1 1zm-7-2h6v-1.003h-6z"/><path d="m34 53.502h-6.998c-.553 0-1-.447-1-1v-3.003c0-.553.447-1 1-1h6.998c.553 0 1 .447 1 1v3.003c0 .553-.447 1-1 1zm-5.998-2h4.998v-1.003h-4.998z"/><path d="m27.001 39.5c-.294 0-.585-.129-.782-.376-.345-.431-.274-1.061.157-1.405l4.998-3.996c.431-.345 1.062-.273 1.405.157.345.431.274 1.061-.157 1.405l-4.998 3.996c-.184.148-.404.219-.623.219z"/><path d="m62.999 39.499c-.219 0-.439-.071-.623-.219l-4.998-3.996c-.432-.345-.502-.975-.157-1.405.344-.43.976-.502 1.405-.157l4.998 3.996c.432.345.502.975.157 1.405-.197.247-.488.376-.782.376z"/><path d="m58.002 30.505c-.553 0-1-.447-1-1 0-1.103-.897-2-2-2-.553 0-1-.447-1-1s.447-1 1-1c2.206 0 4 1.794 4 4 0 .553-.447 1-1 1z"/><path d="m31.998 30.504c-.553 0-1-.447-1-1 0-2.206 1.794-4 4-4 .553 0 1 .447 1 1s-.447 1-1 1c-1.103 0-2 .897-2 2 0 .553-.447 1-1 1z"/><path d="m58.002 35.503c-.553 0-1-.447-1-1v-4.998c0-.553.447-1 1-1s1 .447 1 1v4.998c0 .553-.447 1-1 1z"/><path d="m55.002 27.505h-20.004c-.553 0-1-.447-1-1s.447-1 1-1h20.004c.553 0 1 .447 1 1s-.447 1-1 1z"/><path d="m31.998 35.504c-.553 0-1-.447-1-1v-5c0-.553.447-1 1-1s1 .447 1 1v5c0 .553-.447 1-1 1z"/><path d="m58.002 35.503h-26.004c-.553 0-1-.447-1-1s.447-1 1-1h26.004c.553 0 1 .447 1 1s-.447 1-1 1z"/><path d="m33 45.502c-2.206 0-4-1.794-4-4 0-.553.447-1 1-1s1 .447 1 1c0 1.103.897 2 2 2 .553 0 1 .447 1 1s-.447 1-1 1z"/><path d="m34.5 45.502c-.553 0-1-.447-1-1s.447-1 1-1c.275 0 .5-.225.5-.5s-.225-.5-.5-.5c-.553 0-1-.447-1-1s.447-1 1-1c1.379 0 2.5 1.121 2.5 2.5s-1.121 2.5-2.5 2.5z"/><path d="m34.5 45.502h-1.5c-.553 0-1-.447-1-1s.447-1 1-1h1.5c.553 0 1 .447 1 1s-.447 1-1 1z"/><path d="m34.5 42.502h-4.5c-.553 0-1-.447-1-1s.447-1 1-1h4.5c.553 0 1 .447 1 1s-.447 1-1 1z"/><path d="m57 45.502c-.553 0-1-.447-1-1s.447-1 1-1c1.103 0 2-.897 2-2 0-.553.447-1 1-1s1 .447 1 1c0 2.206-1.794 4-4 4z"/><path d="m55.5 45.502c-1.379 0-2.5-1.121-2.5-2.5s1.121-2.5 2.5-2.5c.553 0 1 .447 1 1s-.447 1-1 1c-.275 0-.5.225-.5.5s.225.5.5.5c.553 0 1 .447 1 1s-.447 1-1 1z"/><path d="m57 45.502h-1.5c-.553 0-1-.447-1-1s.447-1 1-1h1.5c.553 0 1 .447 1 1s-.447 1-1 1z"/><path d="m60 42.502h-4.5c-.553 0-1-.447-1-1s.447-1 1-1h4.5c.553 0 1 .447 1 1s-.447 1-1 1z"/><path d="m51 47.502h-12c-.553 0-1-.447-1-1v-3.999c0-.553.447-1 1-1h12c.553 0 1 .447 1 1v3.999c0 .553-.447 1-1 1zm-11-2h10v-1.999h-10z"/><path d="m48 47.502c-.553 0-1-.447-1-1v-3.999c0-.553.447-1 1-1s1 .447 1 1v3.999c0 .553-.447 1-1 1z"/><path d="m45 47.502c-.553 0-1-.447-1-1v-3.999c0-.553.447-1 1-1s1 .447 1 1v3.999c0 .553-.447 1-1 1z"/><path d="m42 47.502c-.553 0-1-.447-1-1v-3.999c0-.553.447-1 1-1s1 .447 1 1v3.999c0 .553-.447 1-1 1z"/><path d="m62 31.503h-3.998c-.553 0-1-.447-1-1s.447-1 1-1h2.998v-.997h-3.762c-.553 0-1-.447-1-1s.447-1 1-1h4.762c.553 0 1 .447 1 1v2.997c0 .553-.447 1-1 1z"/><path d="m32 31.502h-4c-.553 0-1-.447-1-1v-2.997c0-.553.447-1 1-1h4.764c.553 0 1 .447 1 1s-.447 1-1 1h-3.764v.997h3c.553 0 1 .447 1 1s-.447 1-1 1z"/><path d="m31.998 35.493h-30.998c-.553 0-1-.447-1-1v-10.999c0-.553.447-1 1-1h36c.553 0 1 .447 1 1s-.447 1-1 1h-35v8.999h29.998c.553 0 1 .447 1 1s-.447 1-1 1z"/><path d="m8 38.496h-6.998c-.553 0-1-.447-1-1v-3.003c0-.553.447-1 1-1h6.998c.553 0 1 .447 1 1v3.003c0 .553-.447 1-1 1zm-5.998-2h4.998v-1.003h-4.998z"/><path d="m1.001 24.494c-.294 0-.585-.129-.782-.376-.345-.431-.274-1.061.157-1.405l4.998-3.996c.431-.346 1.061-.274 1.405.157.345.431.274 1.061-.157 1.405l-4.998 3.996c-.184.148-.404.219-.623.219z"/><path d="m36.999 24.493c-.219 0-.439-.071-.623-.219l-4.998-3.996c-.432-.345-.502-.975-.157-1.405s.976-.503 1.405-.157l4.998 3.996c.432.345.502.975.157 1.405-.197.247-.488.376-.782.376z"/><path d="m32.002 15.499c-.553 0-1-.447-1-1 0-1.103-.897-2-2-2-.553 0-1-.447-1-1s.447-1 1-1c2.206 0 4 1.794 4 4 0 .553-.447 1-1 1z"/><path d="m5.998 15.498c-.553 0-1-.447-1-1 0-2.206 1.794-4 4-4 .553 0 1 .447 1 1s-.447 1-1 1c-1.103 0-2 .897-2 2 0 .553-.447 1-1 1z"/><path d="m32.002 20.497c-.553 0-1-.447-1-1v-4.998c0-.553.447-1 1-1s1 .447 1 1v4.998c0 .553-.447 1-1 1z"/><path d="m29.002 12.499h-20.004c-.553 0-1-.447-1-1s.447-1 1-1h20.004c.553 0 1 .447 1 1s-.447 1-1 1z"/><path d="m5.998 20.498c-.553 0-1-.447-1-1v-5c0-.553.447-1 1-1s1 .447 1 1v5c0 .553-.447 1-1 1z"/><path d="m32.002 20.497h-26.004c-.553 0-1-.447-1-1s.447-1 1-1h26.004c.553 0 1 .447 1 1s-.447 1-1 1z"/><path d="m25 32.496h-12c-.553 0-1-.447-1-1v-3.999c0-.553.447-1 1-1h12c.553 0 1 .447 1 1v3.999c0 .553-.447 1-1 1zm-11-2h10v-1.999h-10z"/><path d="m22 32.496c-.553 0-1-.447-1-1v-3.999c0-.553.447-1 1-1s1 .447 1 1v3.999c0 .553-.447 1-1 1z"/><path d="m19 32.496c-.553 0-1-.447-1-1v-3.999c0-.553.447-1 1-1s1 .447 1 1v3.999c0 .553-.447 1-1 1z"/><path d="m16 32.496c-.553 0-1-.447-1-1v-3.999c0-.553.447-1 1-1s1 .447 1 1v3.999c0 .553-.447 1-1 1z"/><path d="m36 16.497h-3.998c-.553 0-1-.447-1-1s.447-1 1-1h2.998v-.997h-3.762c-.553 0-1-.447-1-1s.447-1 1-1h4.762c.553 0 1 .447 1 1v2.997c0 .553-.447 1-1 1z"/><path d="m6 16.496h-4c-.553 0-1-.447-1-1v-2.997c0-.553.447-1 1-1h4.764c.553 0 1 .447 1 1s-.447 1-1 1h-3.764v.997h3c.553 0 1 .447 1 1s-.447 1-1 1z"/><path d="m37 27.498c-.553 0-1-.447-1-1v-3.004c0-.553.447-1 1-1s1 .447 1 1v3.004c0 .553-.447 1-1 1z"/><path d="m6.502 31.502c-1.379 0-2.5-1.121-2.5-2.498 0-1.378 1.121-2.499 2.5-2.499 1.377 0 2.498 1.121 2.498 2.499 0 1.377-1.121 2.498-2.498 2.498zm0-2.997c-.275 0-.5.224-.5.499 0 .274.225.498.5.498.274 0 .498-.224.498-.498 0-.275-.224-.499-.498-.499z"/></svg>